<svg width="2000" height="2000" viewBox="0 0 2000 2000" fill="none" xmlns="http://www.w3.org/2000/svg">
<g id="Logo">
<path id="Nickname" fill-rule="evenodd" clip-rule="evenodd" d="M1595.56 1622.21H1712.92L1752.42 1690.95H1850L1739.16 1478.69C1733.64 1468.12 1728.46 1458.63 1723.63 1450.2C1718.45 1441.16 1712.83 1433.43 1706.73 1427.01C1700.29 1420.23 1692.95 1414.97 1684.77 1411.29C1676.39 1407.53 1666.61 1405.7 1655.49 1405.7C1644.23 1405.7 1634.25 1407.47 1625.6 1411.09C1617.08 1414.67 1609.45 1419.79 1602.75 1426.42C1596.4 1432.71 1590.56 1440.24 1585.24 1448.99C1580.22 1457.23 1575.05 1466.5 1569.72 1476.81L1467.38 1674.7L1458.98 1690.95H1559.36L1595.56 1622.21ZM1062 1497V1691H1150V1604H1445V1538H1150V1497H1164H1445V1408H1164C1098.76 1411.83 1066.44 1441.54 1062 1497ZM910.315 1406.75H716.089C703.028 1406.75 690.295 1408.86 677.938 1413.09C665.584 1417.31 654.504 1423.24 644.749 1430.86C634.819 1438.62 626.817 1447.95 620.809 1458.77C614.602 1469.96 611.492 1482.27 611.492 1495.51V1595.06C611.492 1608.57 613.919 1621.2 618.793 1632.85C623.643 1644.46 630.351 1654.53 638.889 1663.01C647.431 1671.48 657.551 1678.1 669.165 1682.82C680.79 1687.55 693.266 1689.91 706.517 1689.91H909.271C917.576 1689.91 925.705 1688.82 933.631 1686.64C941.486 1684.48 948.932 1681.39 955.948 1677.39C962.907 1673.43 969.32 1668.71 975.174 1663.24C981.078 1657.73 986.178 1651.61 990.455 1644.9C994.759 1638.15 998.107 1630.92 1000.49 1623.24C1002.91 1615.44 1004.12 1607.3 1004.12 1598.88V1501.6C1004.12 1489 1001.53 1476.89 996.36 1465.37C991.302 1454.08 984.527 1444.08 976.062 1435.42C967.555 1426.72 957.633 1419.78 946.356 1414.63C934.872 1409.38 922.823 1406.75 910.315 1406.75ZM912.752 1497.07H701.992V1601.67H912.752V1497.07ZM576.855 1690.95L329.226 1548.53L574.697 1405.7H394.092L276.781 1474.95C270.401 1478.61 264.598 1482.21 259.481 1485.68C254.38 1489.14 249.792 1492.75 245.721 1496.51V1405.7H150V1690.95H245.721V1603.16C249.079 1606.18 252.775 1609.05 256.804 1611.77C261.534 1614.96 266.808 1618.2 272.631 1621.47L391.607 1689.48L394.175 1690.95H576.855Z" fill="#8200FF"/>
</g>
<g id="Cat">
<path id="Skirt right" fill-rule="evenodd" clip-rule="evenodd" d="M1144.56 786.946L1080.88 1039.48L1335.64 1039.04L1144.56 786.946Z" fill="#8200FF"/>
<path id="Skirt left" fill-rule="evenodd" clip-rule="evenodd" d="M944.383 1040.57L880.434 784.291L688 1041.02L944.383 1040.57Z" fill="#8200FF"/>
<path id="Whiskers right" fill-rule="evenodd" clip-rule="evenodd" d="M1251.69 561.555L1493.43 510.08L1491.42 500.61L1207.24 561.344L1202.1 559.866L1199.66 569.787L1199.81 569.83L1198.93 572.79L1205.38 571.418L1488.83 652.264L1491.5 642.957L1241.7 571.237H1501V561.555H1251.69Z" fill="#8200FF"/>
<path id="Whiskers left" fill-rule="evenodd" clip-rule="evenodd" d="M776.133 561.555H526.999V571.237H786.084L536.281 642.957L538.95 652.264L822.425 571.413L828.894 572.79L828.434 571.237H828.505L827.711 568.104L825.689 559.866L820.559 561.339L536.408 500.61L534.395 510.08L776.133 561.555Z" fill="#8200FF"/>
<path id="Ear right" fill-rule="evenodd" clip-rule="evenodd" d="M1125.21 310L1050.5 460H1199.82L1125.21 310Z" fill="#8200FF"/>
<path id="Ear left" fill-rule="evenodd" clip-rule="evenodd" d="M900.07 310L825.39 460H974.553L900.07 310Z" fill="#8200FF"/>
<path id="Body" fill-rule="evenodd" clip-rule="evenodd" d="M1011.59 1310L1228.25 460H800L1011.59 1310Z" fill="#8200FF"/>
</g>
</svg>
