<svg width="2000" height="2000" viewBox="0 0 2000 2000" fill="none" xmlns="http://www.w3.org/2000/svg">
<g id="Logo">
<path id="Nickname" fill-rule="evenodd" clip-rule="evenodd" d="M502.183 1829.7L210.855 1662.15L499.644 1494.12H287.168L149.154 1575.59C141.649 1579.89 134.821 1584.12 128.802 1588.21C122.8 1592.28 117.402 1596.53 112.613 1600.95V1494.12H0V1829.7H112.613V1726.42C116.564 1729.98 120.912 1733.35 125.652 1736.55C131.216 1740.31 137.422 1744.11 144.272 1747.96L284.243 1827.98L287.266 1829.7H502.183ZM1838.73 1748.83H1700.66L1658.07 1829.7H1539.97L1549.86 1810.58L1670.25 1577.78C1676.53 1565.64 1682.61 1554.74 1688.51 1545.04C1694.78 1534.75 1701.64 1525.89 1709.12 1518.49C1717 1510.69 1725.98 1504.66 1736 1500.46C1746.17 1496.19 1757.91 1494.12 1771.17 1494.12C1784.24 1494.12 1795.75 1496.26 1805.61 1500.69C1815.24 1505.02 1823.87 1511.21 1831.45 1519.19C1838.62 1526.74 1845.24 1535.84 1851.33 1546.47C1857.02 1556.38 1863.1 1567.55 1869.6 1579.99L2000 1829.7H1885.2L1838.73 1748.83ZM1176.84 1601.61V1608.98H1523.28V1712.79H1176.84V1829.7H1073.03V1608.16C1073.03 1588.88 1076.6 1571.99 1083.86 1557.62C1091.04 1543.42 1100.8 1531.64 1113.08 1522.43C1125.11 1513.41 1139.07 1506.82 1154.86 1502.64C1170.17 1498.59 1186.31 1496.57 1203.25 1496.57H1524.1V1601.61H1176.84ZM894.49 1495.35H665.987C650.622 1495.35 635.641 1497.84 621.104 1502.81C606.57 1507.78 593.534 1514.75 582.058 1523.72C570.375 1532.85 560.962 1543.82 553.894 1556.56C546.591 1569.72 542.932 1584.19 542.932 1599.77V1716.89C542.932 1732.78 545.787 1747.64 551.522 1761.36C557.228 1775.01 565.119 1786.86 575.164 1796.83C585.214 1806.8 597.119 1814.58 610.783 1820.14C624.459 1825.7 639.137 1828.48 654.726 1828.48H893.261C903.031 1828.48 912.594 1827.19 921.92 1824.63C931.161 1822.09 939.92 1818.46 948.175 1813.75C956.362 1809.09 963.907 1803.53 970.794 1797.11C977.74 1790.62 983.739 1783.42 988.772 1775.53C993.835 1767.58 997.774 1759.08 1000.58 1750.05C1003.43 1740.86 1004.85 1731.3 1004.85 1721.39V1606.94C1004.85 1592.12 1001.8 1577.87 995.719 1564.31C989.767 1551.03 981.797 1539.27 971.838 1529.08C961.831 1518.84 950.157 1510.68 936.89 1504.62C923.379 1498.45 909.205 1495.35 894.49 1495.35ZM897.356 1601.61H649.402V1724.67H897.356V1601.61Z" fill="#8200FF"/>
<g id="Cat">
<path id="Skirt right" fill-rule="evenodd" clip-rule="evenodd" d="M1170.07 766.169L1095.15 1063.27L1394.87 1062.75L1170.07 766.169Z" fill="#8200FF"/>
<path id="Skirt left" fill-rule="evenodd" clip-rule="evenodd" d="M934.568 1064.55L859.334 763.045L632.941 1065.08L934.568 1064.55Z" fill="#8200FF"/>
<path id="Whiskers righ" fill-rule="evenodd" clip-rule="evenodd" d="M1296.11 501.003L1580.51 440.444L1578.14 429.303L1243.82 500.755L1237.76 499.016L1234.9 510.688L1235.07 510.737L1234.04 514.221L1241.62 512.606L1575.1 607.719L1578.24 596.77L1284.35 512.393H1589.42V501.003H1296.11Z" fill="#8200FF"/>
<path id="Whiskers left" fill-rule="evenodd" clip-rule="evenodd" d="M736.627 501.003H443.529V512.393H748.334L454.449 596.77L457.589 607.719L791.089 512.6L798.7 514.221L798.158 512.393H798.241L797.307 508.707L794.929 499.016L788.893 500.749L454.598 429.303L452.23 440.444L736.627 501.003Z" fill="#8200FF"/>
<path id="Ear right" fill-rule="evenodd" clip-rule="evenodd" d="M1147.3 205.055L1059.41 381.526H1235.08L1147.3 205.055Z" fill="#8200FF"/>
<path id="Ear left" fill-rule="evenodd" clip-rule="evenodd" d="M882.436 205.055L794.577 381.526H970.063L882.436 205.055Z" fill="#8200FF"/>
<path id="body" fill-rule="evenodd" clip-rule="evenodd" d="M1013.64 1381.53L1268.52 381.526H764.706L1013.64 1381.53Z" fill="#8200FF"/>
</g>
</g>
</svg>
